<?xml version="1.0" encoding="utf-8"?>
<!-- Generator: Adobe Illustrator 18.1.1, SVG Export Plug-In . SVG Version: 6.00 Build 0)  -->
<svg version="1.1" xmlns="http://www.w3.org/2000/svg" xmlns:xlink="http://www.w3.org/1999/xlink" x="0px" y="0px"
	 viewBox="0 0 703.9 264" enable-background="new 0 0 703.9 264" xml:space="preserve">
<g id="Structure">
</g>
<g id="Logo">
	<g>
		<g>
			<g>
				<g>
					<path d="M73.8,211.5c1.6,0.8,4,1.6,6.5,1.6c2.7,0,4.1-1.1,4.1-2.8c0-1.6-1.2-2.6-4.4-3.7c-4.3-1.5-7.2-3.9-7.2-7.7
						c0-4.5,3.7-7.9,9.9-7.9c2.9,0,5.1,0.6,6.7,1.3l-1.3,4.8c-1-0.5-2.9-1.2-5.5-1.2c-2.6,0-3.8,1.2-3.8,2.5c0,1.7,1.5,2.4,4.8,3.7
						c4.6,1.7,6.8,4.1,6.8,7.8c0,4.4-3.4,8.1-10.5,8.1c-3,0-5.9-0.8-7.4-1.6L73.8,211.5z"/>
					<path d="M110.5,213c0,1.8,0.1,3.6,0.3,4.6h-5.3l-0.3-1.9H105c-1.2,1.5-3.2,2.3-5.4,2.3c-3.8,0-6.1-2.8-6.1-5.8
						c0-4.9,4.4-7.3,11.1-7.2v-0.3c0-1-0.5-2.4-3.4-2.4c-1.9,0-4,0.7-5.2,1.4l-1.1-3.8c1.3-0.7,3.9-1.7,7.4-1.7
						c6.3,0,8.3,3.7,8.3,8.2V213z M104.7,208.6c-3.1,0-5.5,0.7-5.5,3c0,1.5,1,2.3,2.3,2.3c1.5,0,2.7-1,3.1-2.2
						c0.1-0.3,0.1-0.7,0.1-1V208.6z"/>
					<path d="M119,198.6l2.6,8.8c0.5,1.6,0.8,3.1,1.1,4.6h0.1c0.3-1.6,0.6-3,1-4.6l2.4-8.8h6.2l-7.1,18.9h-5.9l-6.9-18.9H119z"/>
					<path d="M139.1,210c0.2,2.4,2.6,3.6,5.3,3.6c2,0,3.6-0.3,5.2-0.8l0.8,4c-1.9,0.8-4.3,1.2-6.9,1.2c-6.4,0-10.1-3.8-10.1-9.7
						c0-4.8,3-10.1,9.6-10.1c6.1,0,8.4,4.8,8.4,9.5c0,1-0.1,1.9-0.2,2.3H139.1z M146.1,206c0-1.4-0.6-3.8-3.3-3.8
						c-2.5,0-3.5,2.2-3.6,3.8H146.1z"/>
					<path d="M162.9,204.7c0-2.4-0.1-4.4-0.2-6h5l0.3,2.6h0.1c0.8-1.2,2.5-3,5.7-3c2.4,0,4.4,1.2,5.2,3.2h0.1c0.7-1,1.5-1.7,2.4-2.3
						c1-0.6,2.2-0.9,3.6-0.9c3.6,0,6.4,2.6,6.4,8.2v11.2h-5.7v-10.3c0-2.8-0.9-4.3-2.8-4.3c-1.4,0-2.3,0.9-2.7,2.1
						c-0.2,0.4-0.2,1-0.2,1.5v11.1h-5.7V207c0-2.4-0.9-4-2.7-4c-1.5,0-2.4,1.2-2.8,2.1c-0.2,0.5-0.2,1-0.2,1.5v11h-5.7V204.7z"/>
					<path d="M214.9,207.9c0,6.9-4.9,10.1-10,10.1c-5.5,0-9.8-3.6-9.8-9.8c0-6.1,4-10,10.1-10C211,198.2,214.9,202.2,214.9,207.9z
						 M201.2,208.1c0,3.3,1.4,5.7,3.9,5.7c2.3,0,3.8-2.3,3.8-5.7c0-2.8-1.1-5.7-3.8-5.7C202.2,202.4,201.2,205.3,201.2,208.1z"/>
					<path d="M218.5,204.7c0-2.4-0.1-4.4-0.2-6h5.1l0.3,2.6h0.1c0.8-1.2,2.7-3,5.9-3c3.9,0,6.8,2.6,6.8,8.1v11.2h-5.9v-10.5
						c0-2.4-0.9-4.1-3-4.1c-1.6,0-2.6,1.1-3,2.2c-0.2,0.4-0.2,0.9-0.2,1.5v10.9h-5.9V204.7z"/>
					<path d="M245.8,210c0.2,2.4,2.6,3.6,5.3,3.6c2,0,3.6-0.3,5.2-0.8l0.8,4c-1.9,0.8-4.3,1.2-6.9,1.2c-6.4,0-10.1-3.8-10.1-9.7
						c0-4.8,3-10.1,9.6-10.1c6.1,0,8.4,4.8,8.4,9.5c0,1-0.1,1.9-0.2,2.3H245.8z M252.7,206c0-1.4-0.6-3.8-3.3-3.8
						c-2.5,0-3.5,2.2-3.6,3.8H252.7z"/>
					<path d="M265.9,198.6l2.8,9.3c0.3,1.1,0.7,2.5,0.9,3.5h0.1c0.3-1,0.6-2.4,0.9-3.5l2.3-9.3h6.3l-4.4,12.5
						c-2.7,7.5-4.5,10.5-6.7,12.4c-2.1,1.8-4.2,2.4-5.7,2.6l-1.2-5c0.7-0.1,1.7-0.5,2.6-1c0.9-0.5,1.9-1.4,2.4-2.4
						c0.2-0.3,0.3-0.6,0.3-0.8c0-0.2,0-0.5-0.3-1l-6.9-17.3H265.9z"/>
					<path d="M284.7,218c-2,0-3.4-1.5-3.4-3.6c0-2.1,1.4-3.6,3.5-3.6c2.1,0,3.4,1.5,3.4,3.6C288.2,216.5,286.8,218,284.7,218
						L284.7,218z"/>
				</g>
				<g>
					<path d="M301.4,191.5h5.9v21.2h10.4v5h-16.3V191.5z"/>
					<path d="M327.8,193.4c0,1.6-1.2,2.9-3.2,2.9c-1.9,0-3.1-1.3-3.1-2.9c0-1.7,1.2-3,3.1-3C326.6,190.4,327.8,191.7,327.8,193.4z
						 M321.8,217.6v-18.9h5.9v14.3v4.6H321.8z"/>
					<path d="M337.5,198.6l2.6,8.8c0.5,1.6,0.8,3.1,1.1,4.6h0.1c0.3-1.6,0.6-3,1.1-4.6l2.4-8.8h6.2l-7.1,18.9H338l-6.9-18.9H337.5z"
						/>
					<path d="M357.6,210c0.2,2.4,2.6,3.6,5.3,3.6c2,0,3.6-0.3,5.2-0.8l0.8,4c-1.9,0.8-4.3,1.2-6.9,1.2c-6.4,0-10.1-3.8-10.1-9.7
						c0-4.8,3-10.1,9.6-10.1c6.1,0,8.4,4.8,8.4,9.5c0,1-0.1,1.9-0.2,2.3H357.6z M364.6,206c0-1.4-0.6-3.8-3.3-3.8
						c-2.5,0-3.5,2.2-3.6,3.8H364.6z"/>
					<path d="M381.4,190.1h5.9v10.8h0.1c1.1-1.6,3.1-2.7,5.7-2.7c4.5,0,7.9,3.8,7.8,9.6c0,6.8-4.3,10.2-8.7,10.2
						c-2.2,0-4.3-0.8-5.7-3.1h-0.1l-0.2,2.6h-5c0.1-1.2,0.2-3.5,0.2-5.7V190.1z M387.3,209.5c0,0.4,0,0.7,0.1,1.1
						c0.4,1.6,1.7,2.8,3.5,2.8c2.5,0,4.1-1.9,4.1-5.3c0-2.9-1.3-5.3-4.1-5.3c-1.6,0-3.1,1.2-3.5,2.9c-0.1,0.3-0.1,0.7-0.1,1.1V209.5
						z"/>
					<path d="M409.2,210c0.2,2.4,2.6,3.6,5.3,3.6c2,0,3.6-0.3,5.2-0.8l0.8,4c-1.9,0.8-4.3,1.2-6.9,1.2c-6.4,0-10.1-3.8-10.1-9.7
						c0-4.8,3-10.1,9.6-10.1c6.1,0,8.4,4.8,8.4,9.5c0,1-0.1,1.9-0.2,2.3H409.2z M416.1,206c0-1.4-0.6-3.8-3.3-3.8
						c-2.5,0-3.5,2.2-3.6,3.8H416.1z"/>
					<path d="M432.5,193.5v5.2h4.2v4.3h-4.2v6.9c0,2.3,0.5,3.3,2.3,3.3c0.8,0,1.2,0,1.7-0.2l0,4.5c-0.8,0.3-2.2,0.5-3.8,0.5
						c-1.9,0-3.5-0.7-4.4-1.7c-1.1-1.1-1.6-2.9-1.6-5.6V203h-2.5v-4.3h2.5v-3.6L432.5,193.5z"/>
					<path d="M447.5,193.5v5.2h4.2v4.3h-4.2v6.9c0,2.3,0.5,3.3,2.3,3.3c0.8,0,1.2,0,1.7-0.2l0,4.5c-0.8,0.3-2.2,0.5-3.8,0.5
						c-1.9,0-3.5-0.7-4.4-1.7c-1.1-1.1-1.6-2.9-1.6-5.6V203h-2.5v-4.3h2.5v-3.6L447.5,193.5z"/>
					<path d="M460.4,210c0.2,2.4,2.6,3.6,5.4,3.6c2,0,3.6-0.3,5.2-0.8l0.8,4c-1.9,0.8-4.3,1.2-6.9,1.2c-6.4,0-10.1-3.8-10.1-9.7
						c0-4.8,3-10.1,9.6-10.1c6.1,0,8.4,4.8,8.4,9.5c0,1-0.1,1.9-0.2,2.3H460.4z M467.4,206c0-1.4-0.6-3.8-3.3-3.8
						c-2.5,0-3.5,2.2-3.6,3.8H467.4z"/>
					<path d="M477.1,204.9c0-2.8-0.1-4.6-0.1-6.2h5.1l0.2,3.5h0.2c1-2.8,3.3-3.9,5.1-3.9c0.5,0,0.8,0,1.2,0.1v5.6
						c-0.4-0.1-0.9-0.2-1.6-0.2c-2.2,0-3.6,1.2-4,3c-0.1,0.4-0.1,0.9-0.1,1.3v9.6h-5.9V204.9z"/>
					<path d="M494.8,218c-2,0-3.4-1.5-3.4-3.6c0-2.1,1.4-3.6,3.5-3.6c2.1,0,3.4,1.5,3.4,3.6C498.3,216.5,496.9,218,494.8,218
						L494.8,218z"/>
				</g>
			</g>
			<g>
				<g>
					<g>
						<g>
							<path d="M578,109.2c3.3,0,6-1.7,6.3-3.9l3.2-36.5c0-3.6-4.2-6.6-9.5-6.6c-5.3,0-9.5,3-9.5,6.6l3.2,36.5
								C572.1,107.5,574.8,109.2,578,109.2L578,109.2z"/>
							<path d="M558.3,120.6c1.6-2.8,1.5-6-0.2-7.4l-30-21.1c-3.1-1.8-7.8,0.4-10.5,5c-2.7,4.6-2.2,9.7,0.9,11.5l33.2,15.5
								C553.9,124.9,556.7,123.4,558.3,120.6L558.3,120.6z"/>
							<path d="M597.8,120.6c1.6,2.8,4.5,4.3,6.5,3.5l33.2-15.5c3.1-1.8,3.6-6.9,0.9-11.5c-2.7-4.6-7.4-6.8-10.5-5l-30,21.1
								C596.3,114.6,596.2,117.8,597.8,120.6L597.8,120.6z"/>
						</g>
						<g>
							<path d="M578,154.8c3.3,0,6,1.7,6.3,3.9l3.2,36.5c0,3.6-4.2,6.6-9.5,6.6c-5.3,0-9.5-3-9.5-6.6l3.2-36.5
								C572.1,156.5,574.8,154.8,578,154.8L578,154.8z"/>
							<path d="M597.8,143.4c1.6-2.8,4.5-4.3,6.5-3.5l33.2,15.5c3.1,1.8,3.6,7,0.9,11.6c-2.7,4.6-7.4,6.8-10.5,5l-30-21
								C596.3,149.4,596.2,146.2,597.8,143.4L597.8,143.4z"/>
							<path d="M558.3,143.4c1.6,2.8,1.5,6-0.2,7.4l-30,21c-3.1,1.8-7.8-0.4-10.5-5c-2.7-4.6-2.2-9.7,0.9-11.6l33.2-15.5
								C553.9,139.1,556.7,140.6,558.3,143.4L558.3,143.4z"/>
						</g>
					</g>
				</g>
				<g>
					<path d="M405.1,136.2c0-13.8-5.9-25.9-25.8-25.9c-10.2,0-18.3,2.9-22.8,5.4l3.2,11.1c4-2.6,10.5-4.7,16.6-4.7
						c10.1,0,11.8,5.7,11.8,9.4v0.9c-22,0-35.9,7.6-35.9,23.1c0,9.5,7.1,18.4,19.4,18.4c7.6,0,13.9-3,17.7-7.9h0.4
						c0,0,2.5,10.5,16.4,6.5c-0.7-4.4-1-9-1-14.7V136.2z M388.7,150.8c0,1.1-0.1,2.3-0.4,3.3c-1.3,4.2-5.6,7.8-11.1,7.8
						c-4.6,0-8.2-2.6-8.2-8c0-8.4,9.2-10.7,19.7-10.6V150.8z"/>
					<path d="M62.2,91.5c0,0,14.4,58.9,16.7,68.5c2.7,11.2,7.5,15.3,21.4,12.5l9-36.5c2.3-9.1,3.8-15.5,5.3-24.8h0.3
						c1,9.3,2.5,15.7,4.4,24.8c0,0,3.7,16.6,5.5,25.3c1.9,8.7,7.1,14.2,20.7,11.2l21.4-81h-17.3l-7.3,35c-2,10.2-3.7,18.2-5.1,27.5
						h-0.2c-1.2-9.2-2.8-16.9-4.8-26.8l-7.6-35.7h-18l-8.1,34.8c-2.3,10.6-4.5,19.1-5.8,28.1h-0.2c-1.4-8.5-3.3-19.2-5.3-29.4
						c0,0-4.8-24.9-6.5-33.5H62.2z"/>
					<path d="M215.9,136.2c0-13.8-5.9-25.9-25.8-25.9c-10.2,0-18.3,2.9-22.8,5.4l3.2,11.1c4-2.6,10.5-4.7,16.6-4.7
						c10.1,0,11.8,5.7,11.8,9.4v0.9c-22,0-35.9,7.6-35.9,23.1c0,9.5,7.1,18.4,19.4,18.4c7.6,0,13.9-3,17.7-7.9h0.4
						c0,0,2.5,10.5,16.4,6.5c-0.7-4.4-1-9-1-14.7V136.2z M199.5,150.8c0,1.1-0.1,2.3-0.4,3.3c-1.3,4.2-5.6,7.8-11.1,7.8
						c-4.6,0-8.2-2.6-8.2-8c0-8.4,9.2-10.7,19.7-10.6V150.8z"/>
					<polygon points="243.4,155.3 243.4,91.5 226.9,91.5 226.9,172.5 243.4,172.5 					"/>
					<path d="M458.6,91.5c0,7.8,0,59.8,0,59.8c0,8.2,1.6,14,4.9,17.5c2.9,3.1,7.7,5.1,13.4,5.1c4.9,0,9.6-0.9,11.9-1.8l-0.2-12.9
						c-1.7,0.4-3.6,0.7-6.2,0.7c-5.6,0-7.5-3.6-7.5-11v-22.9h14.3v-15.5h-14.3V91.5H458.6z"/>
					<path d="M416.1,111.7v60.9h17v-31.2c0-1.7,0.1-3.1,0.4-4.5c1.3-6.5,6.2-10.7,13.4-10.7c2,0,3.4,0.2,4.9,0.4v-15.9
						c-1.3-0.3-2.2-0.4-3.7-0.4c-6.3,0-13.5,4.1-16.6,12.9H431v-11.5H416.1z"/>
					<path d="M254.9,111.7v60.9h16.5v-35.7c0-1.7,0.2-3.4,0.8-5c1.4-3.6,4.7-7.8,10-7.8c6.7,0,9.8,5.6,9.8,13.8v34.7h16.5v-36.1
						c0-1.6,0.2-3.5,0.7-4.9c1.4-4.1,5-7.4,9.9-7.4c6.8,0,10,5.5,10,15.1c0,0,0,25.7,0,33.3h16.5v-35.8c0-18.9-9.6-26.4-20.4-26.4
						c-4.8,0-8.6,1.2-12,3.3c-2.9,1.8-5.5,4.3-7.7,7.6h-0.2c-2.6-6.6-8.8-10.9-16.8-10.9c-10.3,0-14.9,5.2-17.7,9.6h-0.2v-8.3H254.9
						z"/>
				</g>
			</g>
		</g>
		<g>
			<path d="M644.6,168.8c1.6,0,2.9,1.3,2.9,2.8c0,1.6-1.3,2.8-2.9,2.8c-1.6,0-2.9-1.2-2.9-2.8C641.7,170.1,643,168.8,644.6,168.8
				L644.6,168.8z M644.6,169.4c-1.2,0-2.2,1-2.2,2.3c0,1.3,0.9,2.3,2.2,2.3c1.2,0,2.2-1,2.2-2.3
				C646.8,170.4,645.8,169.4,644.6,169.4L644.6,169.4z M644.1,173.1h-0.7v-2.8c0.3-0.1,0.6-0.1,1.1-0.1c0.5,0,0.8,0.1,1,0.2
				c0.2,0.1,0.3,0.3,0.3,0.6c0,0.3-0.2,0.6-0.6,0.7v0c0.3,0.1,0.4,0.3,0.5,0.7c0.1,0.4,0.1,0.6,0.2,0.7h-0.7
				c-0.1-0.1-0.1-0.3-0.2-0.7c-0.1-0.3-0.2-0.4-0.6-0.4h-0.3V173.1z M644.2,171.5h0.3c0.4,0,0.7-0.1,0.7-0.4c0-0.3-0.2-0.4-0.6-0.4
				c-0.2,0-0.3,0-0.4,0V171.5z"/>
		</g>
	</g>
</g>
</svg>
